0
SECTION
2
HEADER
9
$INSUNITS
70
4
9
$ACADVER
1
AC1014
9
$HANDSEED
5
FFFF
0
ENDSEC
0
SECTION
2
TABLES
0
TABLE
2
VPORT
5
8
100
AcDbSymbolTable
0
ENDTAB
0
TABLE
2
LTYPE
5
5
100
AcDbSymbolTable
0
LTYPE
5
14
100
AcDbSymbolTableRecord
100
AcDbLinetypeTableRecord
2
BYBLOCK
70
0
0
LTYPE
5
15
100
AcDbSymbolTableRecord
100
AcDbLinetypeTableRecord
2
BYLAYER
70
0
0
LTYPE
5
16
100
AcDbSymbolTableRecord
100
AcDbLinetypeTableRecord
2
DASHED
70
0
3
Dashed __ __ __ __ __ __ __ __ __ __ __ __ __ _
72
65
73
2
40
0.75
49
0.5
74
0
49
-0.25
74
0
0
ENDTAB
0
TABLE
2
LAYER
5
2
100
AcDbSymbolTable
70
2
0
LAYER
5
50
100
AcDbSymbolTableRecord
100
AcDbLayerTableRecord
2
0
70
0
62
7
6
CONTINUOUS
0
ENDTAB
0
TABLE
2
STYLE
5
3
100
AcDbSymbolTable
70
1
0
STYLE
5
11
100
AcDbSymbolTableRecord
100
AcDbTextStyleTableRecord
2
STANDARD
70
0
0
ENDTAB
0
TABLE
2
VIEW
5
6
100
AcDbSymbolTable
70
0
0
ENDTAB
0
TABLE
2
UCS
5
7
100
AcDbSymbolTable
70
0
0
ENDTAB
0
TABLE
2
APPID
5
9
100
AcDbSymbolTable
70
2
0
APPID
5
12
100
AcDbSymbolTableRecord
100
AcDbRegAppTableRecord
2
ACAD
70
0
0
ENDTAB
0
TABLE
2
DIMSTYLE
5
A
100
AcDbSymbolTable
70
1
0
ENDTAB
0
TABLE
2
BLOCK_RECORD
5
1
100
AcDbSymbolTable
70
1
0
BLOCK_RECORD
5
1F
100
AcDbSymbolTableRecord
100
AcDbBlockTableRecord
2
*MODEL_SPACE
0
BLOCK_RECORD
5
1B
100
AcDbSymbolTableRecord
100
AcDbBlockTableRecord
2
*PAPER_SPACE
0
ENDTAB
0
ENDSEC
0
SECTION
2
BLOCKS
0
BLOCK
5
20
100
AcDbEntity
100
AcDbBlockBegin
2
*MODEL_SPACE
0
ENDBLK
5
21
100
AcDbEntity
100
AcDbBlockEnd
0
BLOCK
5
1C
100
AcDbEntity
100
AcDbBlockBegin
2
*PAPER_SPACE
0
ENDBLK
5
1D
100
AcDbEntity
100
AcDbBlockEnd
0
ENDSEC
0
SECTION
2
ENTITIES
0
LWPOLYLINE
5
100
100
AcDbEntity
8
0
100
AcDbPolyline
90
4
70
1
43
0.0
10
5.9641118802263708
20
11.33753431999626
10
6.2749863972688402
20
20.239815729228859
10
11.249825994516973
20
20.239815729228859
10
11.560700511550461
20
11.337534319996276
42
-1.0355303137905698
0
SPLINE
5
101
100
AcDbEntity
8
0
100
AcDbSpline
70
4
71
5
72
41
73
35
74
0
42
0.000000001
43
0.0000000001
44
0.0000000001
40
0
40
0
40
0
40
0
40
0
40
0
40
0.033333333333333333
40
0.066666666666666666
40
0.10000000000000001
40
0.13333333333333333
40
0.16666666666666666
40
0.19999999999999998
40
0.23333333333333331
40
0.26666666666666666
40
0.29999999999999999
40
0.33333333333333331
40
0.36666666666666664
40
0.39999999999999997
40
0.43333333333333329
40
0.46666666666666662
40
0.49999999999999994
40
0.53333333333333333
40
0.56666666666666665
40
0.59999999999999998
40
0.6333333333333333
40
0.66666666666666663
40
0.69999999999999996
40
0.73333333333333328
40
0.76666666666666661
40
0.79999999999999993
40
0.83333333333333326
40
0.86666666666666659
40
0.89999999999999991
40
0.93333333333333324
40
0.96666666666666656
40
1
40
1
40
1
40
1
40
1
40
1
41
1
41
1
41
1
41
1
41
1
41
1
41
1
41
1
41
1
41
1
41
1
41
1
41
1
41
1
41
1
41
1
41
1
41
1
41
1
41
1
41
1
41
1
41
1
41
1
41
1
41
1
41
1
41
1
41
1
41
1
41
1
41
1
41
1
41
1
41
1
10
22.527122406581732
20
24.566294188325436
30
0
10
22.39477383801578
20
24.563314826789806
30
0
10
22.123641863696044
20
24.560570677668384
30
0
10
21.697638861958364
20
24.566098364550683
30
0
10
21.090959436398805
20
24.592789728244281
30
0
10
20.268781216066611
20
24.658193030126718
30
0
10
19.385464879259292
20
24.754760256459232
30
0
10
18.446798484630666
20
24.880518944231945
30
0
10
17.463322926061057
20
25.031790998208624
30
0
10
16.449592960485081
20
25.203440138164982
30
0
10
15.421817010152312
20
25.389690824448259
30
0
10
14.395966471982376
20
25.584791025196004
30
0
10
13.385769172931784
20
25.783683815419106
30
0
10
12.400571168656588
20
25.982797048048404
30
0
10
11.443734658716016
20
26.180428287059542
30
0
10
10.513824475022691
20
26.375166884292028
30
0
10
9.6053717548132092
20
26.564571701923875
30
0
10
8.709773992305692
20
26.743776783883515
30
0
10
7.8160838594179065
20
26.904038983837289
30
0
10
6.9118840479280506
20
27.03149589208936
30
0
10
5.9854108429535131
20
27.110294252327911
30
0
10
5.0276327523787625
20
27.125502465445209
30
0
10
4.0343521011270962
20
27.066098422103899
30
0
10
3.0083676786048912
20
26.928000132208272
30
0
10
1.9615763320297999
20
26.717031114759333
30
0
10
0.91199208841225254
20
26.44594625639138
30
0
10
-0.11902903616360269
20
26.131691368350062
30
0
10
-1.1097189491900377
20
25.792526333902384
30
0
10
-2.040504527154348
20
25.445458856582363
30
0
10
-2.8973859521269665
20
25.102993984623431
30
0
10
-3.6726779533412368
20
24.772274552682866
30
0
10
-4.2247820684476869
20
24.519963660559618
30
0
10
-4.6001618142928473
20
24.338123319311361
30
0
10
-4.8332447541498116
20
24.220178053606539
30
0
10
-4.9454937867805846
20
24.162025719698377
30
0
0
LINE
5
102
100
AcDbEntity
8
0
100
AcDbLine
10
-4.9454937867805846
20
24.162025719698384
30
0
11
-0.96742321189462688
21
-4.1434172023522642
31
0
0
LINE
5
103
100
AcDbEntity
8
0
100
AcDbLine
10
-0.96742321189462688
20
-4.1434172023522642
30
0
11
-2.2375938041154422
21
-6.3434172023522661
31
0
0
ARC
5
104
100
AcDbEntity
8
0
100
AcDbCircle
10
8.7624061958882926
20
39.168360387525638
30
0
40
46.822237231796123
210
0
220
0
230
1
100
AcDbArc
50
256.41243822791449
51
283.58756177208113
0
LINE
5
105
100
AcDbEntity
8
0
100
AcDbLine
10
19.76240619588857
20
-6.3434172023531143
30
0
11
18.492235603671194
21
-4.143417202352266
31
0
0
LINE
5
106
100
AcDbEntity
8
0
100
AcDbLine
10
18.492235603671194
20
-4.143417202352266
30
0
11
22.527122406581732
21
24.566294188325436
31
0
0
LWPOLYLINE
5
107
100
AcDbEntity
8
0
100
AcDbPolyline
90
4
70
1
43
0.0
10
20.226393268350744
20
-9.8551649976801876
10
20.47107330158061
20
-12.651870574941686
42
-0.012515701526918315
10
16.962406195888441
20
-13.150290519417149
10
16.962406195888384
20
-10.521256602095562
42
0.016931984311368799
0
LWPOLYLINE
5
108
100
AcDbEntity
8
0
100
AcDbPolyline
90
4
70
1
43
0.0
10
8.0124061962287136
20
-11.203685585138093
10
8.0124061962288913
20
-13.622779927857664
42
-0.021935708374924617
10
1.8124061958881965
20
-13.284807394863423
10
1.8124061958881388
20
-10.71604977094815
42
0.031632978163780384
0
LWPOLYLINE
5
109
100
AcDbEntity
8
0
100
AcDbPolyline
90
4
70
1
43
0.0
10
9.5124061962287207
20
-13.622779927850805
10
9.5124061962287136
20
-11.2036855851381
42
0.031632978160317834
10
15.712406195888391
20
-10.716049770948155
10
15.712406195888281
20
-13.284807394863263
42
-0.021935708372518164
0
LWPOLYLINE
5
110
100
AcDbEntity
8
0
100
AcDbPolyline
90
4
70
1
43
0.0
10
-2.9462609098040837
20
-12.651870574941722
42
0.012515701526918837
10
0.56240619588817153
20
-13.150290519417178
10
0.56240619588808161
20
-10.521256602095965
42
-0.016931984311367995
10
-2.7015808765741411
20
-9.8551649976801912
0
LWPOLYLINE
5
111
100
AcDbEntity
8
0
100
AcDbPolyline
90
16
70
1
43
0.0
10
14.462406195888317
20
-22.103990747953091
42
0.016804506699692103
10
16.762406195888367
20
-21.643417202352264
10
16.762406195888122
20
-14.380927776924697
42
0.017554364439924225
10
21.762406195888367
20
-13.643417202352266
10
21.298716279201383
20
-8.3434172023522617
42
-0.132892786414438
10
-3.7739038874247024
20
-8.3434172023522812
10
-4.2375938041118317
20
-13.643417202352275
42
0.017554364439924225
10
0.76240619588828107
20
-14.380927776924706
10
0.76240619588832437
20
-21.643417202352275
42
0.01680450669969169
10
3.0624061958882418
20
-22.103990747953077
10
3.0624061958882454
20
-14.600772866421678
42
0.0083502439746388941
10
5.4624061958881516
20
-14.751087738906383
10
5.4624061958883408
20
-22.416186019918413
42
0.047375673554797326
10
12.062406195888354
20
-22.416186019918449
10
12.062406195888165
20
-14.751087738906383
42
0.0083502439746397251
10
14.462406195888262
20
-14.600772866421661
0
LWPOLYLINE
5
112
100
AcDbEntity
8
0
100
AcDbPolyline
90
4
70
1
43
0.0
10
-1.2375938041115542
20
-23.343417202352271
10
7.7624061958884276
20
-33.794417602672581
42
2.8489995996796784
10
9.7624061958884294
20
-33.794417602672588
10
18.762406195888413
20
-23.343417202352263
42
-0.14167670684188333
0
LWPOLYLINE
5
113
100
AcDbEntity
8
0
100
AcDbPolyline
90
4
70
1
43
0.0
10
-51.272407086494887
20
-3.5725589931379087
10
-51.272407086494887
20
-36.965042961711497
10
0.76240619588832992
20
-20.484391874551982
10
0.76240619588832992
20
-17.930525667536227
0
SPLINE
5
114
100
AcDbEntity
8
0
100
AcDbSpline
70
4
71
5
72
61
73
55
74
0
42
0.000000001
43
0.0000000001
44
0.0000000001
40
-1
40
-1
40
-1
40
-1
40
-1
40
-1
40
-0.98000000000000054
40
-0.96000000000000052
40
-0.9400000000000005
40
-0.92000000000000048
40
-0.90000000000000047
40
-0.88000000000000045
40
-0.86000000000000043
40
-0.84000000000000041
40
-0.8200000000000004
40
-0.80000000000000038
40
-0.78000000000000036
40
-0.76000000000000034
40
-0.74000000000000032
40
-0.72000000000000031
40
-0.70000000000000029
40
-0.68000000000000027
40
-0.66000000000000025
40
-0.64000000000000024
40
-0.62000000000000022
40
-0.6000000000000002
40
-0.58000000000000018
40
-0.56000000000000016
40
-0.54000000000000015
40
-0.52000000000000013
40
-0.50000000000000011
40
-0.48000000000000015
40
-0.46000000000000013
40
-0.44000000000000011
40
-0.4200000000000001
40
-0.40000000000000008
40
-0.38000000000000006
40
-0.36000000000000004
40
-0.34000000000000002
40
-0.32000000000000001
40
-0.29999999999999999
40
-0.27999999999999997
40
-0.25999999999999995
40
-0.23999999999999996
40
-0.21999999999999997
40
-0.19999999999999998
40
-0.17999999999999999
40
-0.16
40
-0.14000000000000001
40
-0.12000000000000001
40
-0.10000000000000001
40
-0.080000000000000002
40
-0.059999999999999998
40
-0.040000000000000001
40
-0.02
40
0
40
0
40
0
40
0
40
0
40
0
41
1
41
1
41
1
41
1
41
1
41
1
41
1
41
1
41
1
41
1
41
1
41
1
41
1
41
1
41
1
41
1
41
1
41
1
41
1
41
1
41
1
41
1
41
1
41
1
41
1
41
1
41
1
41
1
41
1
41
1
41
1
41
1
41
1
41
1
41
1
41
1
41
1
41
1
41
1
41
1
41
1
41
1
41
1
41
1
41
1
41
1
41
1
41
1
41
1
41
1
41
1
41
1
41
1
41
1
41
1
10
-44.496601654502904
20
34.355284174346416
30
0
10
-44.389145942352457
20
34.406624864125106
30
0
10
-44.16364299571817
20
34.506698961569953
30
0
10
-43.79361421794669
20
34.64898818025199
30
0
10
-43.236650583587995
20
34.823053800584624
30
0
10
-42.435801063663902
20
35.014072219433167
30
0
10
-41.534716695111406
20
35.177217635542945
30
0
10
-40.542600254735873
20
35.309923080984504
30
0
10
-39.47496554986332
20
35.408024491801726
30
0
10
-38.355726779125504
20
35.46519952410091
30
0
10
-37.214589508666542
20
35.474281750089432
30
0
10
-36.083613102481998
20
35.428930440861485
30
0
10
-34.994108265974759
20
35.325124620017668
30
0
10
-33.973312130964054
20
35.162858414550222
30
0
10
-33.041339579986129
20
34.947481416585433
30
0
10
-32.207539223809022
20
34.691879166412008
30
0
10
-31.468514803752843
20
34.416233299982004
30
0
10
-30.811495816784795
20
34.140642681960436
30
0
10
-30.216721869858926
20
33.878454811564779
30
0
10
-29.660300213109267
20
33.630368552246686
30
0
10
-29.116581453085146
20
33.375589373068593
30
0
10
-28.561814499083834
20
33.074457029982753
30
0
10
-27.979237211703982
20
32.683160035674724
30
0
10
-27.363464176261701
20
32.16461112101242
30
0
10
-26.725936186743759
20
31.502127329992199
30
0
10
-26.097710627741812
20
30.708276774803714
30
0
10
-25.520657796075263
20
29.815043935581507
30
0
10
-25.040406251486559
20
28.866679060178676
30
0
10
-24.698429985215707
20
27.911408645728663
30
0
10
-24.524931638435955
20
26.993968488116693
30
0
10
-24.530308759868955
20
26.147021110387353
30
0
10
-24.700328756358381
20
25.385323715864423
30
0
10
-25.006830295485713
20
24.711453858290128
30
0
10
-25.416655055844654
20
24.120014555838473
30
0
10
-25.900302476567454
20
23.602129412233545
30
0
10
-26.442985011137203
20
23.150464515029213
30
0
10
-27.045734150899534
20
22.761401600866048
30
0
10
-27.716300144992317
20
22.434134321937876
30
0
10
-28.462652159766311
20
22.170634806940768
30
0
10
-29.285824242677091
20
21.975212681347301
30
0
10
-30.171964462839394
20
21.854403515838673
30
0
10
-31.096024049220283
20
21.815175582916353
30
0
10
-32.027192107266181
20
21.862980295621878
30
0
10
-32.933851811609138
20
21.999742882545021
30
0
10
-33.788364057599061
20
22.222110552401571
30
0
10
-34.572820283104477
20
22.518988395653246
30
0
10
-35.281428079149556
20
22.871316598850093
30
0
10
-35.916168000209126
20
23.256192084710609
30
0
10
-36.483798172959744
20
23.650208476459987
30
0
10
-36.992583897416502
20
24.032765163699764
30
0
10
-37.448545855314968
20
24.390227247460437
30
0
10
-37.773342581668174
20
24.650952656409345
30
0
10
-37.994948153805744
20
24.83130023536301
30
0
10
-38.132913133461493
20
24.944788056895234
30
0
10
-38.199452849507921
20
24.999845664930657
30
0
0
SPLINE
5
115
100
AcDbEntity
8
0
100
AcDbSpline
70
4
71
5
72
76
73
70
74
0
42
0.000000001
43
0.0000000001
44
0.0000000001
40
-1
40
-1
40
-1
40
-1
40
-1
40
-1
40
-0.98461538461538289
40
-0.96923076923076756
40
-0.95384615384615223
40
-0.9384615384615369
40
-0.92307692307692157
40
-0.90769230769230624
40
-0.89230769230769091
40
-0.87692307692307558
40
-0.86153846153846025
40
-0.84615384615384492
40
-0.83076923076922959
40
-0.81538461538461426
40
-0.79999999999999893
40
-0.7846153846153836
40
-0.76923076923076827
40
-0.75384615384615294
40
-0.73846153846153761
40
-0.72307692307692228
40
-0.70769230769230695
40
-0.69230769230769162
40
-0.67692307692307629
40
-0.66153846153846096
40
-0.64615384615384563
40
-0.6307692307692303
40
-0.61538461538461497
40
-0.59999999999999964
40
-0.58461538461538431
40
-0.56923076923076898
40
-0.55384615384615365
40
-0.53846153846153832
40
-0.52307692307692299
40
-0.50769230769230766
40
-0.49230769230769234
40
-0.47692307692307695
40
-0.46153846153846156
40
-0.44615384615384618
40
-0.43076923076923079
40
-0.41538461538461541
40
-0.40000000000000002
40
-0.38461538461538464
40
-0.36923076923076925
40
-0.35384615384615387
40
-0.33846153846153848
40
-0.32307692307692309
40
-0.30769230769230771
40
-0.29230769230769232
40
-0.27692307692307694
40
-0.26153846153846155
40
-0.24615384615384617
40
-0.23076923076923078
40
-0.2153846153846154
40
-0.20000000000000001
40
-0.18461538461538463
40
-0.16923076923076924
40
-0.15384615384615385
40
-0.13846153846153847
40
-0.12307692307692308
40
-0.1076923076923077
40
-0.092307692307692313
40
-0.076923076923076927
40
-0.061538461538461542
40
-0.046153846153846156
40
-0.030769230769230771
40
-0.015384615384615385
40
0
40
0
40
0
40
0
40
0
40
0
41
1
41
1
41
1
41
1
41
1
41
1
41
1
41
1
41
1
41
1
41
1
41
1
41
1
41
1
41
1
41
1
41
1
41
1
41
1
41
1
41
1
41
1
41
1
41
1
41
1
41
1
41
1
41
1
41
1
41
1
41
1
41
1
41
1
41
1
41
1
41
1
41
1
41
1
41
1
41
1
41
1
41
1
41
1
41
1
41
1
41
1
41
1
41
1
41
1
41
1
41
1
41
1
41
1
41
1
41
1
41
1
41
1
41
1
41
1
41
1
41
1
41
1
41
1
41
1
41
1
41
1
41
1
41
1
41
1
41
1
10
-38.199452849507921
20
24.999845664930657
30
0
10
-38.127909569662663
20
24.789360987526216
30
0
10
-37.976306219608269
20
24.371303211372396
30
0
10
-37.723351270628761
20
23.75295107258377
30
0
10
-37.334954593800717
20
22.945959157972005
30
0
10
-36.762946300362152
20
21.967450069895715
30
0
10
-36.100629072402278
20
21.022443939256835
30
0
10
-35.340683944471643
20
20.117377069587626
30
0
10
-34.470703293199094
20
19.26309418409701
30
0
10
-33.477443416389299
20
18.473504182264563
30
0
10
-32.35206876791802
20
17.763879971996058
30
0
10
-31.094601371136449
20
17.149332299221939
30
0
10
-29.719766885418046
20
16.643103554256026
30
0
10
-28.258888313087294
20
16.255278135896436
30
0
10
-26.751876851452305
20
15.992482149468735
30
0
10
-25.241142729945064
20
15.857394716264468
30
0
10
-23.764715583551698
20
15.848317685928144
30
0
10
-22.349783274392006
20
15.958732907762126
30
0
10
-21.005801530674994
20
16.176796531703022
30
0
10
-19.729187800604031
20
16.488199274522518
30
0
10
-18.508372342128897
20
16.879208041461403
30
0
10
-17.328541796008619
20
17.339464296086405
30
0
10
-16.176881853156388
20
17.865295101555397
30
0
10
-15.046487554534291
20
18.46161262662736
30
0
10
-13.933453578119074
20
19.13663435988893
30
0
10
-12.834694240755297
20
19.897272623675356
30
0
10
-11.745730771798453
20
20.744732077208027
30
0
10
-10.657895410850713
20
21.668884860997672
30
0
10
-9.5579832389970996
20
22.64731733401392
30
0
10
-8.4310813751053075
20
23.650360152246289
30
0
10
-7.2626024130243412
20
24.644610786273535
30
0
10
-6.0406066358123214
20
25.597009477266781
30
0
10
-4.7580848539258156
20
26.47879626994461
30
0
10
-3.4150359142448612
20
27.269182191342473
30
0
10
-2.0173169523149954
20
27.954034271126126
30
0
10
-0.5756981426716824
20
28.524939300566686
30
0
10
0.89509049823868447
20
28.978102799079416
30
0
10
2.3774418229997956
20
29.313396880609275
30
0
10
3.8515457793062917
20
29.533179173989122
30
0
10
5.2976668548955006
20
29.641940867738818
30
0
10
6.6995718219728628
20
29.646595145407623
30
0
10
8.047885953908068
20
29.556622030015482
30
0
10
9.3429344793209701
20
29.384202904193284
30
0
10
10.59916594135899
20
29.144545654624665
30
0
10
11.843966693876151
20
28.855468804541445
30
0
10
13.109547797340717
20
28.536053878895665
30
0
10
14.426283488997839
20
28.205493176554945
30
0
10
15.816133089462996
20
27.881954130712757
30
0
10
17.284326385737391
20
27.581197265527152
30
0
10
18.820682038967689
20
27.316553217440344
30
0
10
20.405587090776738
20
27.099555135244412
30
0
10
22.014510440155057
20
26.940366094670445
30
0
10
23.623045071647631
20
26.848274657755002
30
0
10
25.211886468381458
20
26.832192575050865
30
0
10
26.771369038679715
20
26.901052409387525
30
0
10
28.298323611122242
20
27.062533647292064
30
0
10
29.793500774031521
20
27.321938747510607
30
0
10
31.258669056485438
20
27.680918424695061
30
0
10
32.694122706652273
20
28.136459365017007
30
0
10
34.095346683755835
20
28.679242491907544
30
0
10
35.452869450137506
20
29.294419806514256
30
0
10
36.754597533454373
20
29.964267314292051
30
0
10
37.987485492345684
20
30.670358528698319
30
0
10
39.139365435264992
20
31.395790702657557
30
0
10
40.20097726422064
20
32.127728791918905
30
0
10
41.167040136761784
20
32.858707114206254
30
0
10
41.861359637577486
20
33.439679265774245
30
0
10
42.337578552282913
20
33.872709935316344
30
0
10
42.635277220294768
20
34.160196634519089
30
0
10
42.779181474209729
20
34.303639971161374
30
0
0
SPLINE
5
116
100
AcDbEntity
8
0
100
AcDbSpline
70
4
71
5
72
96
73
90
74
0
42
0.000000001
43
0.0000000001
44
0.0000000001
40
-1
40
-1
40
-1
40
-1
40
-1
40
-1
40
-0.98823529411764577
40
-0.97647058823529287
40
-0.96470588235293997
40
-0.95294117647058707
40
-0.94117647058823417
40
-0.92941176470588127
40
-0.91764705882352837
40
-0.90588235294117547
40
-0.89411764705882257
40
-0.88235294117646967
40
-0.87058823529411677
40
-0.85882352941176388
40
-0.84705882352941098
40
-0.83529411764705808
40
-0.82352941176470518
40
-0.81176470588235228
40
-0.79999999999999938
40
-0.78823529411764648
40
-0.77647058823529358
40
-0.76470588235294068
40
-0.75294117647058778
40
-0.74117647058823488
40
-0.72941176470588198
40
-0.71764705882352908
40
-0.70588235294117618
40
-0.69411764705882328
40
-0.68235294117647038
40
-0.67058823529411749
40
-0.65882352941176459
40
-0.64705882352941169
40
-0.63529411764705879
40
-0.62352941176470589
40
-0.61176470588235299
40
-0.60000000000000009
40
-0.58823529411764719
40
-0.57647058823529429
40
-0.56470588235294139
40
-0.55294117647058849
40
-0.54117647058823559
40
-0.52941176470588269
40
-0.51764705882352979
40
-0.50588235294117689
40
-0.49411764705882394
40
-0.48235294117647098
40
-0.47058823529411803
40
-0.45882352941176507
40
-0.44705882352941212
40
-0.43529411764705916
40
-0.42352941176470621
40
-0.41176470588235325
40
-0.4000000000000003
40
-0.38823529411764734
40
-0.37647058823529439
40
-0.36470588235294144
40
-0.35294117647058848
40
-0.34117647058823553
40
-0.32941176470588257
40
-0.31764705882352962
40
-0.30588235294117666
40
-0.29411764705882371
40
-0.28235294117647075
40
-0.2705882352941178
40
-0.25882352941176484
40
-0.24705882352941189
40
-0.23529411764705893
40
-0.22352941176470598
40
-0.21176470588235302
40
-0.20000000000000007
40
-0.18823529411764711
40
-0.17647058823529416
40
-0.1647058823529412
40
-0.15294117647058825
40
-0.14117647058823529
40
-0.12941176470588234
40
-0.11764705882352941
40
-0.10588235294117647
40
-0.094117647058823528
40
-0.082352941176470587
40
-0.070588235294117646
40
-0.058823529411764705
40
-0.047058823529411764
40
-0.035294117647058823
40
-0.023529411764705882
40
-0.011764705882352941
40
0
40
0
40
0
40
0
40
0
40
0
41
1
41
1
41
1
41
1
41
1
41
1
41
1
41
1
41
1
41
1
41
1
41
1
41
1
41
1
41
1
41
1
41
1
41
1
41
1
41
1
41
1
41
1
41
1
41
1
41
1
41
1
41
1
41
1
41
1
41
1
41
1
41
1
41
1
41
1
41
1
41
1
41
1
41
1
41
1
41
1
41
1
41
1
41
1
41
1
41
1
41
1
41
1
41
1
41
1
41
1
41
1
41
1
41
1
41
1
41
1
41
1
41
1
41
1
41
1
41
1
41
1
41
1
41
1
41
1
41
1
41
1
41
1
41
1
41
1
41
1
41
1
41
1
41
1
41
1
41
1
41
1
41
1
41
1
41
1
41
1
41
1
41
1
41
1
41
1
41
1
41
1
41
1
41
1
41
1
41
1
10
42.779181474209729
20
34.303639971161374
30
0
10
42.640307594394152
20
34.23073475251401
30
0
10
42.358918881736223
20
34.084943741440824
30
0
10
41.925912829190281
20
33.866315437454048
30
0
10
41.326721615049991
20
33.57492805536323
30
0
10
40.541726614396971
20
33.211305992013848
30
0
10
39.722026487012585
20
32.849558172920986
30
0
10
38.870224731887042
20
32.492190273387635
30
0
10
37.990791042032029
20
32.143429559587375
30
0
10
37.088495481768959
20
31.808678359443441
30
0
10
36.166502937199574
20
31.4938462242479
30
0
10
35.224829266405877
20
31.204763503863902
30
0
10
34.258077857525741
20
30.94647296790783
30
0
10
33.255336787572382
20
30.722861977070373
30
0
10
32.204565327230185
20
30.53699914843201
30
0
10
31.096180991783115
20
30.391336022500713
30
0
10
29.926696881191077
20
30.287939294397809
30
0
10
28.702983248725591
20
30.228762825203866
30
0
10
27.444253489313574
20
30.215733309431435
30
0
10
26.17659149558839
20
30.250192572201545
30
0
10
24.928854942101776
20
30.33247247856702
30
0
10
23.727869420192185
20
30.461371716120276
30
0
10
22.59431572348732
20
30.633775848086149
30
0
10
21.537354511159062
20
30.843961841494828
30
0
10
20.553375769668058
20
31.083969671194126
30
0
10
19.629696843133534
20
31.345199685039134
30
0
10
18.746990950091828
20
31.619786205233428
30
0
10
17.882219010619366
20
31.901865420807308
30
0
10
17.011354367420026
20
32.189384403927761
30
0
10
16.112132596114353
20
32.483095782005634
30
0
10
15.166742515303881
20
32.784157599994892
30
0
10
14.164520278481731
20
33.092189148030528
30
0
10
13.104701435411423
20
33.403104000165996
30
0
10
11.999006421321077
20
33.707127638937536
30
0
10
10.867208279608063
20
33.991180152918965
30
0
10
9.7329573812631214
20
34.241099159378876
30
0
10
8.6193744427909156
20
34.444037749759644
30
0
10
7.5450629163527445
20
34.5905204285108
30
0
10
6.5191295223345378
20
34.677326142119554
30
0
10
5.5406887751729084
20
34.70662375089988
30
0
10
4.6007372034995679
20
34.683150740329332
30
0
10
3.6832664241089272
20
34.611973549056671
30
0
10
2.7667226430338223
20
34.496074338163616
30
0
10
1.8252090863561219
20
34.333830804802737
30
0
10
0.83289303507308687
20
34.121991583802242
30
0
10
-0.23147723059830538
20
33.858909183141776
30
0
10
-1.3800866614933986
20
33.547681153877605
30
0
10
-2.6115563959934214
20
33.199327611211181
30
0
10
-3.906412557562259
20
32.835978502602366
30
0
10
-5.2329031636072898
20
32.48624389163281
30
0
10
-6.5528709985415698
20
32.180525182856321
30
0
10
-7.8275470359849013
20
31.946414306603508
30
0
10
-9.0234909143803961
20
31.803911387933439
30
0
10
-10.118200048768673
20
31.761050028008583
30
0
10
-11.10659336573244
20
31.808433421005478
30
0
10
-11.998592613706794
20
31.925538859918831
30
0
10
-12.815605353075023
20
32.088952667256102
30
0
10
-13.587309942493915
20
32.2791607841203
30
0
10
-14.348557773777779
20
32.489737420507609
30
0
10
-15.135340023554464
20
32.729037925842505
30
0
10
-15.97895250719599
20
33.01131563880228
30
0
10
-16.901069449399209
20
33.350814229751371
30
0
10
-17.907405174539527
20
33.75378963872128
30
0
10
-18.985255475613162
20
34.214163699217288
30
0
10
-20.111457914213315
20
34.717646690380384
30
0
10
-21.258267571356111
20
35.244288579104129
30
0
10
-22.400368630089527
20
35.771729030566696
30
0
10
-23.520670543299921
20
36.27794853759336
30
0
10
-24.618477691426534
20
36.744731887911612
30
0
10
-25.707492658938534
20
37.158352335261526
30
0
10
-26.808392391344285
20
37.508798362103725
30
0
10
-27.943060743234646
20
37.789452455261987
30
0
10
-29.128200260154379
20
37.996586953667553
30
0
10
-30.369058542525469
20
38.128939672189077
30
0
10
-31.653515331791262
20
38.187263158300595
30
0
10
-32.957850963190161
20
38.174034926616628
30
0
10
-34.252005436304877
20
38.093156744275063
30
0
10
-35.505076400262922
20
37.949660643784668
30
0
10
-36.690591800009187
20
37.749412050111985
30
0
10
-37.792170547796388
20
37.498818611041301
30
0
10
-38.808195137646265
20
37.204528161405477
30
0
10
-39.747080496171648
20
36.873047390410342
30
0
10
-40.623211108852324
20
36.510354777008672
30
0
10
-41.45280895962911
20
36.121539739443875
30
0
10
-42.249414258685512
20
35.710372900170611
30
0
10
-43.020843328156879
20
35.2790833525926
30
0
10
-43.621065392348314
20
34.918864055320959
30
0
10
-44.062303197985074
20
34.640328540500917
30
0
10
-44.352496464111326
20
34.450918863266359
30
0
10
-44.496601654502904
20
34.355284174346416
30
0
0
SPLINE
5
117
100
AcDbEntity
8
0
100
AcDbSpline
70
4
71
5
72
71
73
65
74
0
42
0.000000001
43
0.0000000001
44
0.0000000001
40
-1
40
-1
40
-1
40
-1
40
-1
40
-1
40
-0.98333333333333472
40
-0.96666666666666801
40
-0.95000000000000129
40
-0.93333333333333457
40
-0.91666666666666785
40
-0.90000000000000113
40
-0.88333333333333441
40
-0.8666666666666677
40
-0.85000000000000098
40
-0.83333333333333426
40
-0.81666666666666754
40
-0.80000000000000082
40
-0.7833333333333341
40
-0.76666666666666738
40
-0.75000000000000067
40
-0.73333333333333395
40
-0.71666666666666723
40
-0.70000000000000051
40
-0.68333333333333379
40
-0.66666666666666707
40
-0.65000000000000036
40
-0.63333333333333364
40
-0.61666666666666692
40
-0.6000000000000002
40
-0.58333333333333348
40
-0.56666666666666676
40
-0.55000000000000004
40
-0.53333333333333333
40
-0.51666666666666661
40
-0.49999999999999994
40
-0.48333333333333328
40
-0.46666666666666662
40
-0.44999999999999996
40
-0.43333333333333329
40
-0.41666666666666663
40
-0.39999999999999997
40
-0.3833333333333333
40
-0.36666666666666664
40
-0.34999999999999998
40
-0.33333333333333331
40
-0.31666666666666665
40
-0.29999999999999999
40
-0.28333333333333333
40
-0.26666666666666666
40
-0.24999999999999997
40
-0.23333333333333331
40
-0.21666666666666665
40
-0.19999999999999998
40
-0.18333333333333332
40
-0.16666666666666666
40
-0.14999999999999999
40
-0.13333333333333333
40
-0.11666666666666665
40
-0.099999999999999992
40
-0.083333333333333329
40
-0.066666666666666666
40
-0.050000000000000003
40
-0.033333333333333333
40
-0.016666666666666666
40
0
40
0
40
0
40
0
40
0
40
0
41
1
41
1
41
1
41
1
41
1
41
1
41
1
41
1
41
1
41
1
41
1
41
1
41
1
41
1
41
1
41
1
41
1
41
1
41
1
41
1
41
1
41
1
41
1
41
1
41
1
41
1
41
1
41
1
41
1
41
1
41
1
41
1
41
1
41
1
41
1
41
1
41
1
41
1
41
1
41
1
41
1
41
1
41
1
41
1
41
1
41
1
41
1
41
1
41
1
41
1
41
1
41
1
41
1
41
1
41
1
41
1
41
1
41
1
41
1
41
1
41
1
41
1
41
1
41
1
41
1
10
48.146763912306092
20
41.340115573581471
30
0
10
47.922522365237931
20
41.212779659950186
30
0
10
47.469360900614426
20
40.964311477506463
30
0
10
46.775583625828396
20
40.610220125363185
30
0
10
45.82246411488245
20
40.175337111801198
30
0
10
44.584789510581771
20
39.693778498503193
30
0
10
43.302552571100293
20
39.274039525598553
30
0
10
41.979287007723002
20
38.91553778419744
30
0
10
40.620953383223267
20
38.617195072332386
30
0
10
39.236639266893548
20
38.377263661085351
30
0
10
37.836901932949218
20
38.193968628616403
30
0
10
36.432084279870402
20
38.066146178735181
30
0
10
35.030526896452528
20
37.993949001319208
30
0
10
33.637081434460328
20
37.979375604343318
30
0
10
32.250832521566352
20
38.027253702372271
30
0
10
30.866483712285216
20
38.144123055821865
30
0
10
29.477506384098827
20
38.336108910478146
30
0
10
28.0788778435873
20
38.60702474661786
30
0
10
26.669670211127716
20
38.956566277707481
30
0
10
25.256483841650908
20
39.377998477071486
30
0
10
23.853918914236449
20
39.857598911502528
30
0
10
22.479063707079824
20
40.377638704356741
30
0
10
21.147344470692762
20
40.918566206313272
30
0
10
19.867686352240998
20
41.461562345683845
30
0
10
18.638289649299395
20
41.990802652371897
30
0
10
17.441241835417095
20
42.496206186499414
30
0
10
16.248195404339445
20
42.971701324133875
30
0
10
15.027339201101855
20
43.412974435017169
30
0
10
13.750046480018758
20
43.815342431380124
30
0
10
12.397333690453799
20
44.171718540776027
30
0
10
10.967285739054509
20
44.470152723128685
30
0
10
9.4718785906667549
20
44.696005743617143
30
0
10
7.9324225376540127
20
44.834704916322643
30
0
10
6.3754670139771132
20
44.874361277143393
30
0
10
4.8286327345939597
20
44.808296484227704
30
0
10
3.3162200466879166
20
44.63798557835333
30
0
10
1.8557122414355836
20
44.374696546467263
30
0
10
0.45751403525869505
20
44.036430190654336
30
0
10
-0.8757854936781817
20
43.645652235091617
30
0
10
-2.1501053234290683
20
43.226680006143368
30
0
10
-3.3803071509429032
20
42.803326562559157
30
0
10
-4.5915259945012901
20
42.396161909597353
30
0
10
-5.8136982543213236
20
42.02226282918825
30
0
10
-7.0748102706998139
20
41.695453864390984
30
0
10
-8.3943472087950397
20
41.426380601851449
30
0
10
-9.7771918664245003
20
41.222629878665877
30
0
10
-11.205867838656832
20
41.088866409064366
30
0
10
-12.648010889380101
20
41.026550035021316
30
0
10
-14.065955107844259
20
41.033612631128392
30
0
10
-15.426085161146958
20
41.104072818223941
30
0
10
-16.707106044298989
20
41.227825624021442
30
0
10
-17.911742546809936
20
41.389957401242974
30
0
10
-19.064068438874486
20
41.571972626519326
30
0
10
-20.196161924652543
20
41.754436361021817
30
0
10
-21.337986377691038
20
41.919184575462154
30
0
10
-22.505759744920208
20
42.051747970443984
30
0
10
-23.691453998476874
20
42.143596044377325
30
0
10
-24.871253340439601
20
42.190664817427049
30
0
10
-26.013952470248498
20
42.191929009177287
30
0
10
-27.088655301939561
20
42.148053854810129
30
0
10
-28.074473147647172
20
42.059801426594142
30
0
10
-28.784210245711719
20
41.953980253101292
30
0
10
-29.270608570465214
20
41.854886066683939
30
0
10
-29.574492225265317
20
41.78005772208796
30
0
10
-29.721337951613201
20
41.740452241021735
30
0
0
SPLINE
5
118
100
AcDbEntity
8
0
100
AcDbSpline
70
4
71
5
72
81
73
75
74
0
42
0.000000001
43
0.0000000001
44
0.0000000001
40
-1
40
-1
40
-1
40
-1
40
-1
40
-1
40
-0.9857142857142841
40
-0.97142857142856986
40
-0.95714285714285563
40
-0.94285714285714139
40
-0.92857142857142716
40
-0.91428571428571292
40
-0.89999999999999869
40
-0.88571428571428445
40
-0.87142857142857022
40
-0.85714285714285599
40
-0.84285714285714175
40
-0.82857142857142752
40
-0.81428571428571328
40
-0.79999999999999905
40
-0.78571428571428481
40
-0.77142857142857058
40
-0.75714285714285634
40
-0.74285714285714211
40
-0.72857142857142787
40
-0.71428571428571364
40
-0.6999999999999994
40
-0.68571428571428517
40
-0.67142857142857093
40
-0.6571428571428567
40
-0.64285714285714246
40
-0.62857142857142823
40
-0.61428571428571399
40
-0.59999999999999976
40
-0.58571428571428552
40
-0.57142857142857129
40
-0.55714285714285705
40
-0.54285714285714282
40
-0.52857142857142858
40
-0.51428571428571435
40
-0.50000000000000011
40
-0.48571428571428582
40
-0.47142857142857153
40
-0.45714285714285724
40
-0.44285714285714295
40
-0.42857142857142866
40
-0.41428571428571437
40
-0.40000000000000008
40
-0.38571428571428579
40
-0.3714285714285715
40
-0.35714285714285721
40
-0.34285714285714292
40
-0.32857142857142863
40
-0.31428571428571433
40
-0.30000000000000004
40
-0.28571428571428575
40
-0.27142857142857146
40
-0.25714285714285717
40
-0.24285714285714291
40
-0.22857142857142862
40
-0.21428571428571433
40
-0.20000000000000004
40
-0.18571428571428575
40
-0.17142857142857146
40
-0.15714285714285717
40
-0.14285714285714288
40
-0.12857142857142859
40
-0.1142857142857143
40
-0.10000000000000001
40
-0.085714285714285715
40
-0.071428571428571425
40
-0.057142857142857141
40
-0.042857142857142858
40
-0.028571428571428571
40
-0.014285714285714285
40
0
40
0
40
0
40
0
40
0
40
0
41
1
41
1
41
1
41
1
41
1
41
1
41
1
41
1
41
1
41
1
41
1
41
1
41
1
41
1
41
1
41
1
41
1
41
1
41
1
41
1
41
1
41
1
41
1
41
1
41
1
41
1
41
1
41
1
41
1
41
1
41
1
41
1
41
1
41
1
41
1
41
1
41
1
41
1
41
1
41
1
41
1
41
1
41
1
41
1
41
1
41
1
41
1
41
1
41
1
41
1
41
1
41
1
41
1
41
1
41
1
41
1
41
1
41
1
41
1
41
1
41
1
41
1
41
1
41
1
41
1
41
1
41
1
41
1
41
1
41
1
41
1
41
1
41
1
41
1
41
1
10
-29.721337951613208
20
41.740452241021742
30
0
10
-29.479997486121068
20
41.735343146446255
30
0
10
-29.001363485569023
20
41.720833223638671
30
0
10
-28.295553406209248
20
41.686193149382014
30
0
10
-27.378762084580174
20
41.614247352939337
30
0
10
-26.272512383483683
20
41.481542636408726
30
0
10
-25.203673861044585
20
41.306627418072132
30
0
10
-24.167563745397338
20
41.090693894496113
30
0
10
-23.156236718877672
20
40.835781570272253
30
0
10
-22.157952287606228
20
40.545024782771542
30
0
10
-21.159471587768067
20
40.223038003385255
30
0
10
-20.148202884738936
20
39.876340334015381
30
0
10
-19.114176173627932
20
39.513665709522066
30
0
10
-18.052646194554111
20
39.146571160353673
30
0
10
-16.964273143273005
20
38.788960388593154
30
0
10
-15.852873296585368
20
38.45553579181346
30
0
10
-14.723739627947531
20
38.160490532849607
30
0
10
-13.581931396760424
20
37.916211906761681
30
0
10
-12.430090662113402
20
37.731708961223561
30
0
10
-11.268396804500647
20
37.612227861225435
30
0
10
-10.096546358908833
20
37.560011714912498
30
0
10
-8.9152949541699282
20
37.574768063339789
30
0
10
-7.7279126962404998
20
37.654191516833464
30
0
10
-6.542325584536175
20
37.794605117100517
30
0
10
-5.3706505025618068
20
37.991026188449631
30
0
10
-4.2251779813181853
20
38.23643770127817
30
0
10
-3.1150308654991625
20
38.521189882539112
30
0
10
-2.0429738011243117
20
38.832482033958101
30
0
10
-1.001124870617093
20
39.153477475345099
30
0
10
0.029431208490363715
20
39.463671712640071
30
0
10
1.0716841714567036
20
39.741603985177207
30
0
10
2.1470265568173668
20
39.967162776025702
30
0
10
3.2697494331603427
20
40.12382935844002
30
0
10
4.4397746028207985
20
40.201509024331187
30
0
10
5.6435289978477279
20
40.196666897584407
30
0
10
6.8606832574509919
20
40.110507104667043
30
0
10
8.0693635065004603
20
39.947693344645742
30
0
10
9.2515235720292477
20
39.714944553788769
30
0
10
10.399377340659218
20
39.419464546813472
30
0
10
11.517370403788114
20
39.068242583290349
30
0
10
12.617423842498589
20
38.668696468483247
30
0
10
13.715746394816545
20
38.229008877161753
30
0
10
14.829173767279176
20
37.75854812509899
30
0
10
15.971346118838344
20
37.268352276194328
30
0
10
17.150113305673631
20
36.771278594838762
30
0
10
18.368956218651025
20
36.281075348776099
30
0
10
19.627666788750105
20
35.811661003000786
30
0
10
20.92333394661005
20
35.376296935499589
30
0
10
22.251152751764593
20
34.986862282877027
30
0
10
23.605410667870409
20
34.652939210942669
30
0
10
24.979918497455284
20
34.381634533447766
30
0
10
26.36810268307034
20
34.177879113189427
30
0
10
27.763193255746121
20
34.044580832012905
30
0
10
29.158379703371438
20
33.982836179847375
30
0
10
30.546962274244152
20
33.992109875324907
30
0
10
31.922550742610202
20
34.070434499268416
30
0
10
33.279037183920934
20
34.214556291127799
30
0
10
34.610404930267585
20
34.420044182043874
30
0
10
35.91059485465874
20
34.681414766095052
30
0
10
37.173329976168723
20
34.992232685859129
30
0
10
38.392000296038212
20
35.345257092909243
30
0
10
39.55941154621884
20
35.732469838673453
30
0
10
40.66841069127338
20
36.145868138891352
30
0
10
41.712701448709957
20
36.578415326258408
30
0
10
42.687642028522241
20
37.024992764161908
30
0
10
43.590949918577849
20
37.4832311377248
30
0
10
44.423714386106035
20
37.954711121570767
30
0
10
45.189608744780116
20
38.444020442442778
30
0
10
45.893416864253673
20
38.956993401723039
30
0
10
46.539893669540206
20
39.499351045216997
30
0
10
47.1322318470094
20
40.074861940422089
30
0
10
47.564040975611555
20
40.563207204829979
30
0
10
47.864499824536814
20
40.945449252111217
30
0
10
48.054408671454212
20
41.207376812509665
30
0
10
48.146763912306092
20
41.340115573581471
30
0
0
ENDSEC
0
SECTION
2
OBJECTS
0
DICTIONARY
5
C
100
AcDbDictionary
3
ACAD_GROUP
350
D
3
ACAD_MLINESTYLE
350
17
0
DICTIONARY
5
D
100
AcDbDictionary
0
DICTIONARY
5
1A
330
C
100
AcDbDictionary
0
DICTIONARY
5
17
100
AcDbDictionary
0
ENDSEC
0
EOF
